# xmcd CD database file
#
# Track frame offsets:
#	150
#	51141
#	131026
#	205841
#
# Disc length: 2763 seconds
#
# Revision: 0
# Processed by: cddbd v1.5.1PL2 Copyright (c) Steve Scherf et al.
# Submitted via: CDex 1.51
#
DISCID=350ac904
DTITLE=Miles Davis - Brooklyn 1969
DYEAR=1900
DGENRE=Jazz
TTITLE0=This
TTITLE1=Agitation
TTITLE2=No Blues
TTITLE3=Paraphernalia
EXTD=
EXTT0=
EXTT1=
EXTT2=
EXTT3=
PLAYORDER=
